<svg width="256" height="256" viewBox="0 0 256 256" fill="none" xmlns="http://www.w3.org/2000/svg">
  <rect width="256" height="256" rx="128" fill="#FFD600"/>
  <circle cx="128" cy="128" r="116" stroke="white" stroke-width="8"/>
  <path d="M128 53C94.5 53 68 79.5 68 113V132C68 137.523 72.4772 142 78 142C83.5229 142 88 137.523 88 132C88 126.477 92.4772 122 98 122C103.523 122 108 126.477 108 132C108 137.523 112.477 142 118 142C123.523 142 128 137.523 128 132C128 126.477 132.477 122 138 122C143.523 122 148 126.477 148 132C148 137.523 152.477 142 158 142C163.523 142 168 137.523 168 132C168 126.477 172.477 122 178 122C183.523 122 188 126.477 188 132C188 137.523 192.477 142 198 142C203.523 142 208 137.523 208 132V113C208 79.5 181.5 53 148 53H128Z" fill="white"/>
  <path d="M128 53V198C128 211.255 117.255 222 104 222V222C96.268 222 90 215.732 90 208V207C90 201.477 94.4772 197 100 197V197C105.523 197 110 192.523 110 187V183" stroke="white" stroke-width="16" stroke-linecap="round"/>
  <path d="M103 89L98 101" stroke="#FFD600" stroke-width="10" stroke-linecap="round"/>
  <path d="M147 79L143 91" stroke="#FFD600" stroke-width="10" stroke-linecap="round"/>
  <path d="M169 103L165 115" stroke="#FFD600" stroke-width="10" stroke-linecap="round"/>
</svg>
